# xmcd
#
# Track frame offsets: 
#        150
#        4978
#        21769
#        39590
#        49562
#        58207
#        69775
#        77123
#        89453
#        100932
#        108991
#        117745
#        136908
#        144330
#        155518
#        175166
#        179264
#        196938
#        210773
#        217904
#        230530
#        239587
#        255194
#        274111
#        283536
#        291351
#        297697
#        303641
#        312859
#        324464
#
# Disc length: 4363 seconds
#
# Revision: 2
# Processed by: cddbd v1.5.2PL0 Copyright (c) Steve Scherf et al.
# Submitted via: ExactAudioCopy v0.95a3
#
DISCID=b511091e
DTITLE=ζαφειρης μελας - Live στην θεσσαλονικη
DYEAR=1900
DGENRE=country
TTITLE0=εισαγωγη
TTITLE1=ναι σου λεω
TTITLE2=δεν το αγαπας
TTITLE3=παρε φωτια
TTITLE4=λεω
TTITLE5=ζωη παραμυθενια
TTITLE6=κατιγορω
TTITLE7=φτανει φτανει
TTITLE8=δε θα με ξεχασεις
TTITLE9=ταχεια
TTITLE10=καρδια μου ειχες αγαπηση
TTITLE11=μονος δεν θα μαι
TTITLE12=Saga krosta
TTITLE13=ελμπι ελμπι
TTITLE14=μη μου πεις πως μ αγαπας
TTITLE15=ορχηστρικο
TTITLE16=αγαπημενη παναγια
TTITLE17=αν μ αγαπουσες λιγο
TTITLE18=εσυ μου μιλας στην καρδια μου
TTITLE19=στο σταυροδρομι
TTITLE20=γυναικες γυναικες
TTITLE21=βραδιαζει
TTITLE22=πες μου τι σου χω κανει
TTITLE23=θα τα καψω
TTITLE24=μαραμενη μου γαρδενια
TTITLE25=υποκρινεσαι
TTITLE26=ερωτα μου αγιατρευτε
TTITLE27=αγαπη μου επικινδυνη
TTITLE28=εισαι το λαθος της ζωης μου
TTITLE29=αποχωρηση
EXTD=
EXTT0=
EXTT1=
EXTT2=
EXTT3=
EXTT4=
EXTT5=
EXTT6=
EXTT7=
EXTT8=
EXTT9=
EXTT10=
EXTT11=
EXTT12=
EXTT13=
EXTT14=
EXTT15=
EXTT16=
EXTT17=
EXTT18=
EXTT19=
EXTT20=
EXTT21=
EXTT22=
EXTT23=
EXTT24=
EXTT25=
EXTT26=
EXTT27=
EXTT28=
EXTT29=
PLAYORDER=
